<svg t="1752226756823" class="icon" viewBox="0 0 1024 1024" version="1.1" xmlns="http://www.w3.org/2000/svg" p-id="27669" width="200" height="200"><path d="M129.1 542.2c-9.2-102.3 22-202.1 87.8-281s158.4-127.4 260.8-136.6c143.8-13 280.9 54.3 358.6 175.8L412.8 724c-9.1 9.1-11.7 22.5-6.6 34.3 4.9 11.5 16.2 19 29.3 19l177.4-3.5c17.2-0.3 31-14.6 30.6-31.9-0.2-8.7-3.8-16.9-9.9-22.6-6-5.5-13.9-8.2-21.9-8l-99.8 2 385.9-385.9c9.8-9.8 12-25.2 5.2-37.3C817 136 648 46.8 472.1 62.4c-119 10.7-226.6 67.1-303.1 158.8C92.4 312.9 56.2 428.9 66.9 547.8c2.7 30.2 8.5 60.1 17.1 88.8 2.4 8 7.8 14.6 15.2 18.6 7.4 3.9 15.8 4.8 23.8 2.4s14.6-7.8 18.5-15.1c4-7.4 4.8-15.8 2.4-23.8-7.5-24.7-12.4-50.5-14.8-76.5z" fill="#df2518" p-id="27670"></path><path d="M957.5 467.6c-1.5-16.9-16.7-29.7-33.9-28.3-17.2 1.6-29.9 16.8-28.3 33.9 19 211.2-137.4 398.5-348.6 417.6-122.4 11-244.2-38.4-326.7-132.5l425.6-425.6c9.3-9.2 11.8-23.4 6.2-35.3-5.6-12-17.9-19.1-31.1-17.9l-178.3 16.1c-17.2 1.6-29.9 16.8-28.3 33.9 1.6 17.1 16.8 29.7 33.9 28.3l92.5-8.3-384.8 384.6c-11 11-12.2 28.7-2.8 41 85.7 112.5 220.5 179.6 360.5 179.6 12.9 0 26-0.6 38.8-1.7 245.7-22.1 427.4-239.8 405.3-485.4z" fill="#1a2629" p-id="27671"></path></svg>